<svg xmlns="http://www.w3.org/2000/svg" width="512" height="512" viewBox="0 0 512 512" style="overflow: visible; max-width: 100%; max-height: 100%;" data-id="$$debug" visibility="visible"><g data-icon="" transform="matrix(0.3322542410849027, 0, 0, 0.3322542410849027, 142.2816649271864, 47.99999742549352)" data-uid="o_fa0hkk73l_7"><svg height="512pt" viewBox="-2 0 511 512" width="512pt" xmlns="http://www.w3.org/2000/svg" data-uid="o_fa0hkk73l_8"><path d="m382.699219 29.5c-69.152344 0-125.207031 36.554688-125.207031 107.074219s56.054687 127.675781 125.207031 127.675781c69.144531 0 125.195312-57.15625 125.195312-127.675781s-56.050781-107.074219-125.195312-107.074219zm0 0" fill="#fbc4ac" data-uid="o_fa0hkk73l_9"></path><path d="m282.214844 136.574219c0-66.265625 49.496094-120.730469 112.84375-127.058594-4.066406-.410156-8.1875-.621094-12.359375-.621094-69.152344 0-125.207031 57.160157-125.207031 127.679688s56.054687 127.675781 125.207031 127.675781c4.171875 0 8.292969-.210938 12.359375-.617188-63.347656-6.332031-112.84375-60.796874-112.84375-127.058593zm0 0" fill="#e3b098" data-uid="o_fa0hkk73l_10"></path><path d="m449.433594 163.34375c-4.269532 0-7.726563-3.457031-7.726563-7.726562v-12.976563c0-4.265625 3.457031-7.726563 7.726563-7.726563 4.269531 0 7.726562 3.460938 7.726562 7.726563v12.976563c0 4.269531-3.457031 7.726562-7.726562 7.726562zm0 0" fill="#3a484a" data-uid="o_fa0hkk73l_11"></path><path d="m458.269531 182.417969h-17.671875c-4.269531 0-7.726562-3.460938-7.726562-7.726563s3.457031-7.726562 7.726562-7.726562h17.671875c4.269531 0 7.726563 3.460937 7.726563 7.726562s-3.457032 7.726563-7.726563 7.726563zm0 0" fill="#f98084" data-uid="o_fa0hkk73l_12"></path><path d="m315.953125 163.34375c-4.269531 0-7.726563-3.457031-7.726563-7.726562v-12.976563c0-4.265625 3.457032-7.726563 7.726563-7.726563s7.726563 3.460938 7.726563 7.726563v12.976563c0 4.269531-3.457032 7.726562-7.726563 7.726562zm0 0" fill="#3a484a" data-uid="o_fa0hkk73l_13"></path><path d="m324.789062 182.417969h-17.671874c-4.269532 0-7.726563-3.460938-7.726563-7.726563s3.457031-7.726562 7.726563-7.726562h17.671874c4.269532 0 7.726563 3.460937 7.726563 7.726562s-3.457031 7.726563-7.726563 7.726563zm0 0" fill="#f98084" data-uid="o_fa0hkk73l_14"></path><path d="m382.691406 181.683594c-6.882812 0-13.351562-2.886719-17.753906-7.921875-2.808594-3.214844-2.476562-8.09375.734375-10.902344 3.214844-2.808594 8.09375-2.480469 10.902344.734375 1.464843 1.675781 3.695312 2.636719 6.117187 2.636719s4.65625-.960938 6.121094-2.640625c2.808594-3.210938 7.6875-3.539063 10.902344-.730469s3.542968 7.691406.730468 10.902344c-4.398437 5.035156-10.871093 7.921875-17.753906 7.921875zm0 0" fill="#3a484a" data-uid="o_fa0hkk73l_15"></path><path d="m501.902344 97.449219c-8.597656-104.671875-50.804688-88.554688-119.203125-88.554688-51.710938 0-76.542969-5.175781-87.121094-8.476562-4.230469-1.324219-8.785156.582031-10.796875 4.53125-8.445312 16.574219-27.289062 61.410156-27.289062 131.625 0 0 29.945312-53.925781 125.203124-53.925781 44.316407 0 40.609376 14.800781 119.207032 14.800781zm0 0" fill="#c86d5c" data-uid="o_fa0hkk73l_16"></path><path d="m309.507812 4.949219c.195313-.382813.417969-.742188.660157-1.082031-6.53125-1.191407-11.265625-2.414063-14.589844-3.449219-4.230469-1.324219-8.785156.582031-10.796875 4.53125-8.445312 16.574219-27.289062 61.410156-27.289062 131.625 0 0 7.167968-12.894531 25.621093-26.070313 3.832031-55.308594 19.042969-91.136718 26.394531-105.554687zm0 0" fill="#ad4f3d" data-uid="o_fa0hkk73l_17"></path><path d="m.589844 379.375v82.308594c0 20.503906 15.417968 37.734375 35.800781 40l59.160156 6.582031zm0 0" fill="#3a484a" data-uid="o_fa0hkk73l_18"></path><path d="m250.808594 379.375v82.308594c0 20.503906-15.414063 37.734375-35.796875 40l-59.160157 6.582031zm0 0" fill="#3a484a" data-uid="o_fa0hkk73l_19"></path><path d="m250.808594 379.375c-.007813.011719-.007813.011719-.007813.011719l-127.878906-96.675781-122.320313 96.675781-.011718-.011719c-.058594 1.644531-.089844 3.285156-.089844 4.941406 0 70.519532 56.050781 127.683594 125.199219 127.683594 69.152343 0 125.203125-57.164062 125.203125-127.683594 0-1.652344-.03125-3.296875-.09375-4.941406zm0 0" fill="#fbc4ac" data-uid="o_fa0hkk73l_20"></path><path d="m21.300781 375.308594c-6.761719 1.890625-13.679687 3.300781-20.699219 4.078125l-.011718-.011719c-.058594 1.644531-.089844 3.285156-.089844 4.941406 0 70.519532 56.050781 127.683594 125.199219 127.683594 3.574219 0 7.109375-.160156 10.605469-.460938-62.175782-5.679687-111.558594-63.875-115.003907-136.230468zm0 0" fill="#e3b098" data-uid="o_fa0hkk73l_21"></path><path d="m58.960938 411.085938c-4.265626 0-7.726563-3.457032-7.726563-7.726563v-12.976563c0-4.265624 3.460937-7.726562 7.726563-7.726562 4.269531 0 7.726562 3.460938 7.726562 7.726562v12.976563c0 4.269531-3.457031 7.726563-7.726562 7.726563zm0 0" fill="#3a484a" data-uid="o_fa0hkk73l_22"></path><path d="m67.796875 430.160156h-17.671875c-4.269531 0-7.726562-3.457031-7.726562-7.726562 0-4.265625 3.457031-7.726563 7.726562-7.726563h17.671875c4.269531 0 7.726563 3.460938 7.726563 7.726563 0 4.269531-3.457032 7.726562-7.726563 7.726562zm0 0" fill="#f98084" data-uid="o_fa0hkk73l_23"></path><path d="m192.441406 411.085938c-4.265625 0-7.726562-3.457032-7.726562-7.726563v-12.976563c0-4.265624 3.460937-7.726562 7.726562-7.726562 4.269532 0 7.726563 3.460938 7.726563 7.726562v12.976563c0 4.269531-3.457031 7.726563-7.726563 7.726563zm0 0" fill="#3a484a" data-uid="o_fa0hkk73l_24"></path><path d="m201.277344 430.160156h-17.671875c-4.269531 0-7.726563-3.457031-7.726563-7.726562 0-4.265625 3.457032-7.726563 7.726563-7.726563h17.671875c4.269531 0 7.726562 3.460938 7.726562 7.726563 0 4.269531-3.457031 7.726562-7.726562 7.726562zm0 0" fill="#f98084" data-uid="o_fa0hkk73l_25"></path><path d="m125.699219 429.429688c-6.882813 0-13.351563-2.886719-17.753907-7.925782-2.808593-3.210937-2.476562-8.09375.734376-10.902344 3.210937-2.804687 8.09375-2.476562 10.902343.734376 1.464844 1.679687 3.695313 2.640624 6.117188 2.640624s4.65625-.960937 6.121093-2.640624c2.808594-3.210938 7.691407-3.539063 10.902344-.730469 3.214844 2.808593 3.542969 7.6875.734375 10.902343-4.402343 5.035157-10.875 7.921876-17.757812 7.921876zm0 0" fill="#3a484a" data-uid="o_fa0hkk73l_26"></path><path d="m.589844 379.375.011718.011719c67.195313-7.433594 125.097657-72.335938 125.097657-72.335938s57.90625 64.902344 125.101562 72.335938c0 0 0 0 .007813-.011719-2.542969-68.226562-57.578125-122.734375-125.109375-122.734375-67.527344 0-122.5625 54.507813-125.109375 122.734375zm0 0" fill="#3a484a" data-uid="o_fa0hkk73l_27"></path><path d="m136.519531 257.121094c-3.566406-.3125-7.171875-.480469-10.820312-.480469-67.527344 0-122.5625 54.507813-125.109375 122.738281l.011718.007813c7.425782-.820313 13.566407-2.019531 20.699219-4.078125 4.433594-62.507813 54.144531-112.859375 115.21875-118.1875zm0 0" fill="#323e40" data-uid="o_fa0hkk73l_28"></path><path d="m203.238281 174.039062v-77.175781c0-27.570312-22.347656-49.921875-49.921875-49.921875h-102.894531c-27.570313 0-49.921875 22.351563-49.921875 49.921875v70.527344c0 27.570313 22.351562 49.917969 49.921875 49.917969h176.726563zm0 0" fill="#58b78c" data-uid="o_fa0hkk73l_29"></path><g fill="#efedee" data-uid="o_fa0hkk73l_30"><path d="m155.757812 104.589844h-107.777343c-4.265625 0-7.726563-3.460938-7.726563-7.726563 0-4.269531 3.460938-7.726562 7.726563-7.726562h107.777343c4.269532 0 7.726563 3.457031 7.726563 7.726562 0 4.265625-3.457031 7.726563-7.726563 7.726563zm0 0" data-uid="o_fa0hkk73l_31"></path><path d="m155.757812 139.851562h-107.777343c-4.265625 0-7.726563-3.457031-7.726563-7.726562 0-4.265625 3.460938-7.726562 7.726563-7.726562h107.777343c4.269532 0 7.726563 3.460937 7.726563 7.726562 0 4.269531-3.457031 7.726562-7.726563 7.726562zm0 0" data-uid="o_fa0hkk73l_32"></path><path d="m115.195312 175.117188h-67.214843c-4.265625 0-7.726563-3.460938-7.726563-7.726563 0-4.269531 3.460938-7.726563 7.726563-7.726563h67.214843c4.265626 0 7.726563 3.457032 7.726563 7.726563 0 4.265625-3.460937 7.726563-7.726563 7.726563zm0 0" data-uid="o_fa0hkk73l_33"></path></g><path d="m305.15625 426.234375v-77.179687c0-27.570313 22.351562-49.917969 49.921875-49.917969h102.894531c27.570313 0 49.921875 22.347656 49.921875 49.917969v70.527343c0 27.570313-22.351562 49.921875-49.921875 49.921875h-176.726562zm0 0" fill="#f2c42c" data-uid="o_fa0hkk73l_34"></path><path d="m460.414062 356.785156h-107.777343c-4.269531 0-7.726563-3.460937-7.726563-7.726562 0-4.269532 3.457032-7.726563 7.726563-7.726563h107.777343c4.269532 0 7.726563 3.457031 7.726563 7.726563 0 4.265625-3.460937 7.726562-7.726563 7.726562zm0 0" fill="#efedee" data-uid="o_fa0hkk73l_35"></path><path d="m460.414062 392.046875h-107.777343c-4.269531 0-7.726563-3.460937-7.726563-7.726563 0-4.265624 3.457032-7.726562 7.726563-7.726562h107.777343c4.269532 0 7.726563 3.460938 7.726563 7.726562 0 4.265626-3.460937 7.726563-7.726563 7.726563zm0 0" fill="#efedee" data-uid="o_fa0hkk73l_36"></path><path d="m460.414062 427.3125h-67.214843c-4.265625 0-7.726563-3.460938-7.726563-7.726562 0-4.269532 3.460938-7.726563 7.726563-7.726563h67.214843c4.265626 0 7.726563 3.457031 7.726563 7.726563 0 4.265624-3.460937 7.726562-7.726563 7.726562zm0 0" fill="#efedee" data-uid="o_fa0hkk73l_37"></path></svg></g><path text-anchor="middle" offset="0.5" fill="rgba(68, 89, 104, 1)" space="preserve" font-scale="contain" font-size="48" font-family="Rufina" text="ChatWithMe" font-style="normal" font-weight="700" data-fl-textpath="" transform="matrix(1.7720224715270256, 0, 0, 1.7720224715270256, 253.9143260900313, 374.7609408208551)" data-uid="o_fa0hkk73l_38" d="M-123.122-32.4L-123.122-32.4L-112.562-31.97L-112.272-23.23L-114.002-23.23L-115.632-29.52Q-118.942-30.62 -122.012-30.62L-122.012-30.62Q-127.732-30.62 -131.282-26.86Q-134.832-23.09 -134.832-15.72Q-134.832-8.35 -131.372-4.9Q-127.922-1.44 -122.662-1.44Q-117.412-1.44 -115.052-2.59L-115.052-2.59L-113.282-8.06L-111.742-8.06L-112.032-1.01Q-118.032 0.29 -122.522 0.29Q-127.012 0.29 -130.172-0.46Q-133.342-1.2 -136.132-2.88Q-138.912-4.56 -140.472-7.73Q-142.032-10.9 -142.032-15.31Q-142.032-19.73 -140.422-23.11Q-138.812-26.5 -136.082-28.46L-136.082-28.46Q-130.612-32.4 -123.122-32.4ZM-92.21-1.1L-89.9-1.39L-89.62-16.61Q-89.62-19.44 -90.34-20.74Q-91.06-22.03 -93.22-22.03Q-95.38-22.03 -97.46-19.39Q-99.55-16.75 -99.55-14.83L-99.55-14.83L-99.55-1.39L-95.95-1.1L-95.95 0L-108.82 0L-108.82-1.1L-105.65-1.39L-105.65-34.46L-109.78-34.61L-109.78-35.76L-99.5-36.86L-99.5-26.11Q-99.5-20.69 -99.79-18.77L-99.79-18.77L-99.5-18.77Q-98.21-21.17 -96-22.46Q-93.79-23.76 -91.25-23.76L-91.25-23.76Q-83.57-23.76 -83.57-16.37L-83.57-16.37Q-83.57-11.04 -83.9-1.39L-83.9-1.39L-80.59-1.1L-80.59 0L-92.21 0L-92.21-1.1ZM-64.368-7.1L-64.368-11.23Q-69.938-11.23 -71.378-8.3L-71.378-8.3Q-71.998-7.06 -71.998-5.18L-71.998-5.18Q-71.998-1.97 -69.788-1.44L-69.788-1.44Q-69.458-1.34 -69.068-1.34L-69.068-1.34Q-67.538-1.34 -65.998-2.95Q-64.468-4.56 -64.368-7.1L-64.368-7.1ZM-72.048-15.94L-72.048-15.94Q-73.108-15.22 -74.258-15.22Q-75.408-15.22 -76.228-15.98Q-77.038-16.75 -77.038-18.26Q-77.038-19.78 -76.128-20.98Q-75.218-22.18 -73.778-22.75L-73.778-22.75Q-70.948-23.95 -68.398-23.95L-68.398-23.95Q-62.738-23.95 -60.668-21.96Q-58.608-19.97 -58.608-15.84L-58.608-15.84L-58.608-1.39L-54.578-1.1L-54.578-0.05L-63.748 0.53L-64.178-3.5Q-66.428 0.58 -71.948 0.58L-71.948 0.58Q-74.448 0.58 -76.248-0.94Q-78.048-2.45 -78.048-5.18L-78.048-5.18Q-77.998-8.83 -74.398-10.68Q-70.798-12.53 -64.368-12.53L-64.368-12.53L-64.368-16.66Q-64.368-19.58 -65.188-21.17Q-65.998-22.75 -68.208-22.75Q-70.418-22.75 -71.518-20.93L-71.518-20.93Q-72.238-19.73 -72.238-18.38Q-72.238-17.04 -72.048-15.94ZM-44.498 0.53L-44.498 0.53Q-49.108 0.53 -50.348-2.69L-50.348-2.69Q-50.878-4.08 -50.878-6.19L-50.878-6.19Q-50.878-14.16 -50.638-22.18L-50.638-22.18L-53.908-22.18L-53.908-23.42L-50.588-23.42L-50.548-30.48L-44.398-30.48L-44.548-23.42L-37.828-23.42L-37.828-22.18L-44.548-22.18L-44.638-18.29Q-44.788-10.51 -44.788-4.03L-44.788-4.03Q-44.788-2.16 -44.378-1.49Q-43.968-0.82 -42.888-0.82Q-41.808-0.82 -40.488-2.33Q-39.168-3.84 -38.588-5.95L-38.588-5.95Q-37.628-5.95 -37.628-5.28L-37.628-5.28Q-37.628-5.14 -37.678-4.94L-37.678-4.94Q-38.448-2.45 -40.298-0.96Q-42.148 0.53 -44.498 0.53ZM-39.508-30.91L-39.508-32.06L-25.588-32.06L-25.588-30.91L-29.188-30.48L-19.678-6.58L-13.678-21.65L-17.278-30.48L-20.828-30.91L-20.828-32.06L-6.908-32.06L-6.908-30.91L-10.708-30.48L-1.198-6.58L 7.252-29.66L 3.022-30.91L 3.022-32.06L 13.052-32.06L 13.052-30.91L 9.412-29.62L-1.828 0.29L-4.708 0.29L-12.628-19.01L-20.308 0.29L-23.188 0.29L-35.808-30.48L-39.508-30.91ZM 26.402-1.1L 26.402 0L 14.012 0L 14.012-1.1L 17.132-1.39L 17.132-21.84L 13.012-22.08L 13.012-23.09L 23.282-23.71L 23.282-1.39L 26.402-1.1ZM 23.612-31.8Q 23.612-30.34  22.582-29.28Q 21.552-28.22  20.012-28.22Q 18.482-28.22  17.452-29.26Q 16.412-30.29  16.412-31.8Q 16.412-33.31  17.472-34.39Q 18.532-35.47  20.012-35.47Q 21.502-35.47  22.562-34.37Q 23.612-33.26  23.612-31.8ZM 37.534 0.53L 37.534 0.53Q 32.924 0.53  31.684-2.69L 31.684-2.69Q 31.154-4.08  31.154-6.19L 31.154-6.19Q 31.154-14.16  31.394-22.18L 31.394-22.18L 28.124-22.18L 28.124-23.42L 31.444-23.42L 31.484-30.48L 37.634-30.48L 37.484-23.42L 44.204-23.42L 44.204-22.18L 37.484-22.18L 37.394-18.29Q 37.244-10.51  37.244-4.03L 37.244-4.03Q 37.244-2.16  37.654-1.49Q 38.064-0.82  39.144-0.82Q 40.224-0.82  41.544-2.33Q 42.864-3.84  43.444-5.95L 43.444-5.95Q 44.404-5.95  44.404-5.28L 44.404-5.28Q 44.404-5.14  44.354-4.94L 44.354-4.94Q 43.584-2.45  41.734-0.96Q 39.884 0.53  37.534 0.53ZM 62.542-1.1L 64.852-1.39L 65.132-16.61Q 65.132-19.44  64.412-20.74Q 63.692-22.03  61.532-22.03Q 59.372-22.03  57.292-19.39Q 55.202-16.75  55.202-14.83L 55.202-14.83L 55.202-1.39L 58.802-1.1L 58.802 0L 45.932 0L 45.932-1.1L 49.102-1.39L 49.102-34.46L 44.972-34.61L 44.972-35.76L 55.252-36.86L 55.252-26.11Q 55.252-20.69  54.962-18.77L 54.962-18.77L 55.252-18.77Q 56.542-21.17  58.752-22.46Q 60.962-23.76  63.502-23.76L 63.502-23.76Q 71.182-23.76  71.182-16.37L 71.182-16.37Q 71.182-11.04  70.852-1.39L 70.852-1.39L 74.162-1.1L 74.162 0L 62.542 0L 62.542-1.1ZM 117.884-1.15L 117.884 0L 104.404 0L 104.404-1.15L 108.044-1.58L 106.804-26.21L 97.154 0L 94.604 0L 83.084-25.97L 82.174-2.35L 86.204-1.15L 86.204 0L 76.364 0L 76.364-1.15L 80.354-2.54L 81.314-30.48L 77.234-30.96L 77.234-32.06L 86.784-32.06L 97.634-6.77L 106.994-32.06L 117.214-32.06L 117.264-30.96L 113.134-30.48L 114.194-1.58L 117.884-1.15ZM 136.364-16.75L 136.364-16.75Q 136.364-22.61  132.284-22.61L 132.284-22.61Q 128.014-22.61  127.104-15.12L 127.104-15.12L 136.274-15.12Q 136.364-16.08  136.364-16.75ZM 131.854 0.53L 131.854 0.53Q 126.724 0.53  123.524-2.83Q 120.334-6.19  120.334-11.71Q 120.334-17.23  123.674-20.59Q 127.004-23.95  132.144-23.95Q 137.284-23.95  139.824-21.77Q 142.364-19.58  142.364-15.7L 142.364-15.7Q 142.364-14.59  142.174-13.39L 142.174-13.39L 126.964-13.39L 126.964-11.71Q 126.964-6.34  128.304-3.58Q 129.644-0.82  132.364-0.82Q 135.074-0.82  137.304-1.94Q 139.534-3.07  140.784-5.14L 140.784-5.14Q 141.844-4.8  141.844-4.13L 141.844-4.13Q 141.844-2.93  139.584-1.34L 139.584-1.34Q 138.484-0.58  136.444-0.02Q 134.404 0.53  131.854 0.53Z" style=""></path></svg>